<?xml version="1.0" standalone="no"?>
<!DOCTYPE svg PUBLIC "-//W3C//DTD SVG 20010904//EN"
 "http://www.w3.org/TR/2001/REC-SVG-20010904/DTD/svg10.dtd">
<svg version="1.0" xmlns="http://www.w3.org/2000/svg"
 width="512.000000pt" height="512.000000pt" viewBox="0 0 512.000000 512.000000"
 preserveAspectRatio="xMidYMid meet">

<g transform="translate(0.000000,512.000000) scale(0.100000,-0.100000)"
fill="#000000" stroke="none">
<path d="M2480 5109 c-55 -17 -107 -60 -137 -114 -28 -49 -28 -52 -28 -226 0
-160 2 -179 19 -198 13 -14 31 -21 56 -21 63 0 68 13 72 203 l3 169 28 24 c40
34 105 33 138 -2 l24 -26 3 -1029 2 -1029 -100 0 -100 0 0 714 0 715 -22 15
c-30 21 -71 20 -99 -3 l-24 -19 -3 -439 -4 -438 -131 495 c-79 297 -144 519
-161 555 -42 86 -161 202 -249 244 -170 81 -361 72 -522 -24 -109 -66 -182
-155 -232 -282 -23 -59 -27 -83 -27 -178 0 -107 2 -118 86 -430 47 -176 88
-327 90 -336 2 -11 -16 -29 -51 -53 -29 -20 -55 -36 -57 -36 -2 0 -8 19 -14
43 -30 113 -52 178 -66 192 -37 36 -124 3 -124 -48 0 -12 13 -68 29 -124 l28
-103 -77 0 c-138 0 -245 -46 -338 -144 -63 -66 -109 -159 -124 -249 l-11 -64
-59 -7 c-79 -8 -137 -35 -197 -91 -69 -64 -95 -128 -96 -230 0 -68 4 -89 28
-137 34 -70 110 -140 175 -163 26 -9 75 -19 110 -22 53 -5 63 -9 67 -27 3 -12
100 -446 215 -966 116 -520 217 -968 225 -997 8 -28 15 -54 15 -57 0 -3 -177
-6 -394 -6 -360 0 -396 -1 -415 -17 -32 -27 -37 -73 -11 -106 l21 -27 2519 0
2519 0 21 27 c26 33 21 79 -11 106 -19 16 -56 17 -440 17 -408 0 -419 1 -410
19 10 17 91 368 91 391 0 23 -50 60 -80 60 -51 0 -63 -23 -103 -205 -21 -93
-43 -180 -50 -194 -7 -14 -27 -36 -46 -48 l-34 -23 -1488 2 -1488 3 -30 29
c-17 16 -34 39 -37 50 -4 12 -104 459 -224 993 l-216 973 100 0 101 -1 55 -69
c62 -79 95 -99 132 -79 12 7 28 19 35 28 31 40 18 61 -213 342 l-226 274 426
3 c234 1 618 1 852 0 l426 -3 -422 -512 c-233 -282 -426 -513 -430 -513 -4 0
-37 36 -74 80 -59 70 -71 80 -100 80 -40 0 -76 -35 -76 -73 0 -17 26 -58 81
-126 120 -150 132 -161 169 -161 40 0 23 -19 360 393 l275 336 1268 0 c697 1
1267 -3 1267 -7 0 -4 -58 -271 -130 -592 -71 -321 -130 -592 -130 -602 0 -48
99 -81 130 -43 7 9 75 291 150 628 l137 612 79 6 c44 3 103 14 132 23 68 23
143 92 179 164 24 48 28 69 28 137 -1 102 -27 166 -96 230 -69 64 -125 87
-230 93 l-86 5 9 41 c14 60 3 211 -21 286 -17 56 -43 107 -101 196 -12 19 -4
41 70 218 93 219 79 205 170 170 61 -23 97 -14 116 31 21 52 4 78 -72 112 -35
15 -64 30 -64 34 0 4 36 91 80 195 44 103 80 200 80 214 0 15 -10 36 -22 47
-20 18 -284 135 -390 173 -63 23 -79 3 -169 -210 -43 -101 -81 -190 -83 -197
-4 -9 -20 -6 -65 12 -33 14 -72 25 -85 25 -55 0 -89 -87 -48 -123 9 -8 43 -27
74 -41 44 -19 56 -29 52 -41 -49 -125 -164 -380 -175 -386 -8 -4 -39 -12 -69
-17 -30 -6 -65 -14 -76 -17 -21 -6 -21 -5 -11 46 13 66 -3 170 -37 237 -64
126 -191 211 -330 220 l-73 4 23 75 c29 91 30 124 4 148 -28 25 -88 25 -106 1
-7 -11 -25 -55 -40 -98 -24 -73 -27 -78 -43 -64 -29 27 -128 67 -188 76 -92
15 -174 -4 -295 -68 -4 -2 -8 174 -10 390 -3 431 -2 422 -67 491 -57 62 -175
92 -261 66z m-890 -510 c125 -20 244 -110 295 -222 13 -29 107 -369 210 -757
102 -388 190 -717 195 -732 l9 -28 -210 0 -210 0 51 93 c97 175 97 174 79 205
-39 69 -107 60 -149 -20 -14 -27 -27 -48 -30 -48 -3 0 -13 26 -22 58 -9 31
-33 81 -53 110 -19 30 -35 56 -35 59 0 2 31 57 69 121 104 178 105 179 90 213
-13 33 -36 49 -72 49 -37 0 -54 -23 -166 -216 l-41 -72 -62 25 c-41 17 -90 27
-144 31 l-82 5 -10 36 c-6 20 -48 176 -93 346 -76 290 -81 315 -76 383 13 174
139 320 309 357 80 17 71 17 148 4z m3108 -239 l101 -42 -13 -32 c-7 -17 -34
-83 -61 -146 -26 -63 -51 -119 -56 -124 -7 -8 -201 66 -222 84 -4 4 15 60 43
126 29 65 58 134 66 153 9 20 19 31 27 28 8 -3 59 -24 115 -47z m-1541 -296
c26 -9 57 -33 82 -62 22 -26 50 -57 60 -69 24 -27 63 -30 114 -8 20 8 61 15
92 15 95 0 173 -46 218 -129 53 -97 44 -186 -31 -311 l-40 -65 -73 -7 c-48 -5
-95 -18 -137 -38 -36 -17 -66 -29 -68 -27 -2 2 -11 39 -20 83 -21 106 -34 124
-84 124 -46 0 -80 -27 -80 -62 0 -13 7 -50 15 -83 23 -98 25 -95 -53 -95 -120
0 -208 -36 -294 -119 l-48 -45 0 364 c0 346 2 367 21 410 25 56 53 86 104 113
74 38 137 41 222 11z m1350 -154 c94 -39 101 -44 93 -64 -4 -11 -49 -117 -99
-235 -50 -117 -91 -222 -91 -232 0 -10 18 -39 40 -64 100 -116 140 -262 109
-405 l-11 -50 -257 0 -258 0 -5 118 c-8 175 -56 284 -156 357 -22 17 -41 33
-41 37 -1 4 32 23 72 43 51 25 98 39 163 49 50 7 96 16 101 19 6 4 53 105 103
224 111 261 109 256 123 250 7 -3 58 -24 114 -47z m-3002 -622 c115 -59 173
-164 182 -330 l6 -98 -592 0 -593 0 7 43 c25 151 141 256 295 265 65 4 85 1
143 -23 78 -31 109 -28 134 13 43 70 116 128 193 153 50 17 172 4 225 -23z
m2237 -45 c97 -54 138 -144 138 -303 l0 -80 -494 0 -494 0 -7 29 c-13 60 16
149 67 207 73 83 206 109 304 59 77 -39 98 -34 163 33 68 72 119 93 208 88 46
-3 76 -12 115 -33z m-3281 -703 c76 -91 138 -168 138 -172 1 -12 -279 -9 -321
2 -115 32 -164 173 -93 266 28 36 97 76 124 71 8 -1 76 -76 152 -167z m4405
151 c23 -10 54 -35 69 -55 71 -93 22 -234 -93 -266 -39 -10 -2702 -15 -2702
-4 0 3 32 43 70 90 39 46 102 122 140 169 l71 85 1202 0 c1152 0 1204 -1 1243
-19z"/>
<path d="M1628 4173 c-40 -48 -198 -337 -198 -363 0 -33 40 -70 75 -70 37 0
58 26 154 192 97 167 109 209 73 241 -25 22 -85 22 -104 0z"/>
<path d="M1789 1561 c-17 -13 -23 -29 -23 -56 0 -27 6 -43 23 -56 22 -18 61
-19 1031 -19 1004 0 1007 0 1034 21 36 28 36 80 0 108 -27 21 -30 21 -1034 21
-970 0 -1009 -1 -1031 -19z"/>
<path d="M1371 953 c-32 -27 -37 -73 -11 -106 l21 -27 1154 0 c1083 0 1154 1
1173 18 38 32 29 106 -14 122 -16 6 -457 10 -1164 10 -1069 0 -1139 -1 -1159
-17z"/>
</g>
</svg>
