<?xml version="1.0" standalone="no"?>
<!DOCTYPE svg PUBLIC "-//W3C//DTD SVG 20010904//EN"
 "http://www.w3.org/TR/2001/REC-SVG-20010904/DTD/svg10.dtd">
<svg version="1.0" xmlns="http://www.w3.org/2000/svg"
 width="500.000000pt" height="266.000000pt" viewBox="0 0 500.000000 266.000000"
 preserveAspectRatio="xMidYMid meet">

<g transform="translate(0.000000,266.000000) scale(0.100000,-0.100000)"
fill="#000000" stroke="none">
<path d="M420 1320 l0 -970 2125 0 2125 0 0 970 0 970 -2125 0 -2125 0 0 -970z
m4098 -2 l2 -818 -1975 0 -1975 0 0 820 0 820 1973 -2 1972 -3 3 -817z"/>
<path d="M3757 1863 c-4 -3 -7 -86 -7 -182 0 -195 5 -214 60 -226 37 -8 37 3
5 -275 -14 -118 -25 -225 -25 -238 0 -34 52 -82 88 -82 39 0 82 40 82 77 0 15
-11 125 -25 243 -31 266 -31 270 -6 270 11 0 32 10 46 23 l26 22 2 177 c2 186
-4 216 -38 188 -12 -10 -15 -35 -15 -116 0 -97 -1 -104 -20 -104 -18 0 -20 7
-21 83 -1 97 -5 129 -21 138 -29 18 -37 -3 -40 -109 -3 -99 -4 -107 -23 -107
-19 0 -20 8 -23 105 -2 68 -7 107 -15 112 -15 10 -22 10 -30 1z"/>
<path d="M4268 1817 c-26 -20 -54 -55 -73 -92 -28 -55 -30 -66 -33 -199 -4
-163 3 -194 48 -203 17 -3 32 -8 34 -12 2 -3 -7 -87 -20 -186 -13 -99 -24
-185 -24 -192 0 -6 12 -25 26 -42 33 -39 74 -41 109 -6 31 30 31 46 3 249 -16
123 -19 163 -10 177 8 13 12 99 12 279 0 292 3 284 -72 227z"/>
<path d="M1565 1721 c-98 -24 -163 -99 -174 -199 -6 -56 -7 -57 -38 -60 -33
-3 -33 -4 -33 -58 0 -50 2 -54 23 -54 44 0 47 -13 47 -212 l0 -188 60 0 60 0
0 200 0 200 85 0 85 0 0 55 0 55 -85 0 -85 0 0 43 c1 74 44 107 139 107 l61 0
0 60 0 60 -57 -1 c-32 -1 -71 -4 -88 -8z"/>
<path d="M3310 1550 c0 -66 -2 -120 -5 -120 -3 0 -20 10 -36 23 -26 18 -44 22
-107 22 -66 0 -84 -4 -124 -27 -189 -112 -181 -385 15 -484 43 -22 60 -26 123
-22 63 3 79 8 119 36 56 40 68 40 95 2 12 -16 26 -30 31 -30 5 0 9 144 9 360
l0 360 -60 0 -60 0 0 -120z m-61 -218 c80 -59 81 -178 2 -245 -27 -22 -42 -27
-86 -27 -47 0 -58 4 -88 33 -66 61 -69 161 -9 228 47 53 119 57 181 11z"/>
<path d="M935 1457 c-107 -51 -150 -122 -149 -247 0 -89 11 -120 61 -187 81
-106 282 -113 378 -13 l29 30 -40 41 -41 41 -25 -25 c-39 -39 -138 -58 -138
-28 0 4 54 73 120 154 66 80 120 150 120 155 0 13 -52 58 -90 77 -20 11 -65
20 -105 22 -59 3 -78 0 -120 -20z m139 -100 c16 -12 11 -21 -61 -120 -43 -58
-82 -105 -88 -103 -17 5 -25 70 -14 117 15 68 57 103 140 118 3 1 13 -5 23
-12z"/>
<path d="M1895 1467 c-118 -47 -175 -134 -175 -265 0 -155 106 -261 261 -262
111 0 209 66 245 168 17 48 17 157 0 205 -36 99 -118 158 -230 163 -41 2 -84
-1 -101 -9z m160 -126 c40 -22 65 -75 65 -137 0 -123 -124 -192 -221 -123 -55
39 -76 136 -43 205 19 41 33 53 81 69 42 15 73 11 118 -14z"/>
<path d="M2465 1456 c-67 -32 -111 -80 -135 -149 -25 -72 -25 -132 0 -201 23
-60 87 -128 145 -152 44 -18 156 -18 199 0 47 20 113 82 139 130 31 58 31 194
0 251 -68 127 -222 181 -348 121z m183 -113 c29 -18 60 -69 68 -111 9 -47 -14
-108 -53 -143 -29 -25 -42 -29 -90 -29 -51 0 -58 3 -93 38 -63 62 -66 152 -8
217 46 53 118 64 176 28z"/>
</g>
</svg>
